<svg xmlns="http://www.w3.org/2000/svg" class="icon" viewBox="0 0 1024 1024" width="200" height="200" t="1596455313428" p-id="1982" version="1.1"><path fill="#fe6a00" d="M 904.533 522.667 c 2.13333 -4.26667 2.13333 -6.4 2.13333 -10.6667 s 0 -8.53333 -2.13333 -10.6667 c -2.13333 -4.26667 -4.26667 -6.4 -6.4 -8.53333 l -341.333 -362.667 c -12.8 -12.8 -32 -12.8 -44.8 -2.13333 c -12.8 12.8 -12.8 32 -2.13333 44.8 l 290.133 309.333 H 149.333 c -17.0667 0 -32 14.9333 -32 32 s 14.9333 32 32 32 h 650.667 L 509.867 853.333 c -12.8 12.8 -10.6667 34.1333 2.13333 44.8 c 6.4 6.4 14.9333 8.53333 21.3333 8.53333 c 8.53333 0 17.0667 -4.26667 23.4667 -10.6667 l 341.333 -362.667 c 2.13333 -2.13333 4.26667 -6.4 6.4 -10.6667 Z" p-id="1983" /></svg>